<svg xmlns="http://www.w3.org/2000/svg" version="1.1" xmlns:xlink="http://www.w3.org/1999/xlink" xmlns:svgjs="http://svgjs.dev/svgjs" width="1000" height="1125" viewBox="0 0 1000 1125"><g transform="matrix(1,0,0,1,1.7053025658242404e-13,0)"><svg viewBox="0 0 320 360" data-background-color="#ffffff" preserveAspectRatio="xMidYMid meet" height="1125" width="1000" xmlns="http://www.w3.org/2000/svg" xmlns:xlink="http://www.w3.org/1999/xlink"><g id="tight-bounds" transform="matrix(1,0,0,1,0,0)"><svg viewBox="0 0 320 360" height="360" width="320"><g><svg></svg></g><g><svg viewBox="0 0 320 360" height="360" width="320"><g><path xmlns="http://www.w3.org/2000/svg" d="M20.961 227.22l3.726 4.658-1.863-6.056c-0.466-2.795-3.726 0.466-1.863 1.398M25.153 224.425c1.397 2.329 2.795 4.658 2.795 6.987 0 3.261 2.795 4.658 5.123 5.589-3.261-3.726-5.124-13.974-7.918-12.576M204.017 26.929c7.918 0 15.371-0.932 23.756 0.931 20.495 5.124 37.729 15.371 49.374 29.811l32.606 52.169c1.397 13.042 4.192 27.482 3.726 43.319 3.261 0 2.795-4.658 6.521-5.59-3.726 9.316-5.59 20.961-6.521 34.469-2.329-7.453 0-18.632 0.466-24.687-3.261 5.124-5.124 1.397-5.124-0.932 0.466-3.726-1.397-3.261-2.795-4.658-5.124-4.658-8.384-9.782-12.11-17.7 2.329-6.055 2.795-14.905-4.658-19.563-2.329-1.397-5.124-3.726-6.521-7.453-1.863-5.124-5.124-11.179-4.193-19.097 0.466-2.329-6.987 5.124-11.179 1.863-18.166-12.576-36.332-27.016-58.224-39.127-11.645 0-20.029-4.192-24.221-9.316-3.726-4.658-0.932-10.713 4.658-11.179 3.261 0 6.987-0.932 9.782 0.932 0.466-1.863 2.329-4.192 4.657-4.192M157.904 16.215l0.932 0.466c4.658 0.932 6.987 7.453 12.11 5.124 0 3.261 0.466 6.521-0.466 8.85-1.397 3.726-5.59 3.726-8.85 3.726-31.208-1.863-49.374 11.179-68.471 22.358-5.124 3.261-10.713 5.59-14.906 9.782-20.029 18.632-41.921 35.866-47.045 70.335l-4.192 38.195c-0.466 4.192-5.124 8.384-4.192 13.508l3.26 22.824c-3.261-3.261-5.124 0.932-4.192 2.795 0.466 1.397 2.329 6.055 5.124 1.863 3.726 6.987 7.453 20.495 12.576 26.55 15.837 18.632 36.332 35.4 53.101 52.169 4.192-0.932 7.453-0.932 8.384-3.727 1.397 2.795-1.397 5.59-3.726 6.056 7.453 4.658 15.837 8.85 27.016 9.781 14.44 0.932 27.948 3.261 40.524 6.522 6.521-1.863 13.042-2.795 20.029-3.261 2.329 0 3.726-3.726 6.521-4.658l0.466-4.658c2.795 4.192 2.329-1.397 0.466-4.192 3.261 2.795 4.192 5.124 5.589 6.987 0-1.397 3.726-6.521 3.727-0.466l0.931-6.055c1.397-0.932 1.863 5.124 3.261 0.931 1.397-4.192 4.192-0.932 6.987-2.329-0.932 1.863-0.466 5.59 2.794 3.261l3.727-3.261c2.329 5.59 6.055 3.261 7.918 2.329 20.495-13.042 40.99-28.413 60.553-43.784l-0.466 6.055 2.329-7.453c2.329 2.329 4.192 0.466 5.124-0.931 2.795-4.658 6.521-9.316 12.577-13.508-7.453 20.029-16.303 35.866-27.482 48.908l-4.658 5.59c0 3.261-0.932 7.453-4.658 7.918-1.863 0.466-5.59-0.932-8.384 1.863-1.397 1.863 3.261 5.59-0.466 2.795-3.261-2.329-6.521 0-10.248 0.932-2.795 0.932 1.863 3.726 2.795 5.589 0.932 1.863 1.863 3.726 1.398 6.056l-5.124-5.59c-6.055 3.261-9.782 9.316-14.906 13.974-2.329 1.863-1.397 5.124-1.397 7.918-3.261 0-6.987-0.932-8.85 0.932-1.397 1.863-0.932 4.658-0.932 7.453-4.658-0.466-5.124-7.453-9.315-6.056-4.192 0.932-8.85 1.397-12.577 3.727 2.795 5.59-4.658 2.329-3.726 3.26-6.987-4.192-13.042-7.453-20.495-4.658-15.837-5.124-35.4-2.795-49.84-0.931 0-2.329 0.466-4.658-0.466-5.124-0.932 2.329-3.726 1.397-3.26 1.397-8.85-6.055-17.7-9.782-27.016-14.905-8.384 0.932-16.303-3.261-18.632-5.59-6.521-6.055-13.974-2.795-20.029-4.192-13.042-3.261-17.7-16.769-19.098-26.084-0.932-4.658-4.658-6.521-6.055-6.056-6.055-19.563-15.371-37.263-22.824-55.429-1.863-4.658-1.397-9.316-1.397-14.44 2.329 0.932 4.658 0.466 4.192-2.794-2.329-15.371-7.918-27.016-13.974-38.195 3.261-15.837 3.726-34.469 11.179-48.443 6.521-12.576 18.632-19.098 27.016-29.811 2.795-3.726 2.795-8.85 5.59-12.11 9.316-9.316 18.632-19.098 28.879-27.482 4.658-3.726 10.247 0 17.234-1.397 2.329-8.384 11.645-15.837 20.495-13.508 3.726 0.932 11.179-8.85 13.508-9.782 3.726-1.397 1.863 3.726 1.863 6.987 8.85-6.987 20.961-10.713 32.14-14.906" fill="#010c80" fill-rule="nonzero" stroke="none" stroke-width="1" stroke-linecap="butt" stroke-linejoin="miter" stroke-miterlimit="10" stroke-dasharray="" stroke-dashoffset="0" font-family="none" font-weight="none" font-size="none" text-anchor="none" style="mix-blend-mode: normal" data-fill-palette-color="tertiary"></path></g><g transform="matrix(1,0,0,1,102.42074927953891,90)"><svg viewBox="0 0 115.1585014409222 180" height="180" width="115.1585014409222"><g><svg viewBox="0 0 115.1585014409222 180" height="180" width="115.1585014409222"><g><svg viewBox="0 0 115.1585014409222 180" height="180" width="115.1585014409222"><g><svg viewBox="0 0 115.1585014409222 180" height="180" width="115.1585014409222"><g id="textblocktransform"><svg viewBox="0 0 115.1585014409222 180" height="180" width="115.1585014409222" id="textblock"><g><svg viewBox="0 0 115.1585014409222 180" height="180" width="115.1585014409222"><g transform="matrix(1,0,0,1,0,0)"><svg width="115.1585014409222" viewBox="3.0999999046325684 -34.25 22.19999885559082 34.70000076293945" height="180" data-palette-color="url(#16c1dbbf-9edf-44e8-b2bb-b8e6bde4bbb4)"></svg></g></svg></g></svg></g></svg></g><g></g></svg></g></svg></g></svg></g></svg></g><defs></defs><mask id="ea7d3282-f33e-4bc0-a24a-1210c9895cf7"><g id="SvgjsG1019"><svg viewBox="0 0 320 360" height="360" width="320"><g><svg></svg></g><g><svg viewBox="0 0 320 360" height="360" width="320"><g></g><g transform="matrix(1,0,0,1,102.42074927953891,90)"><svg viewBox="0 0 115.1585014409222 180" height="180" width="115.1585014409222"><g><svg viewBox="0 0 115.1585014409222 180" height="180" width="115.1585014409222"><g><svg viewBox="0 0 115.1585014409222 180" height="180" width="115.1585014409222"><g><svg viewBox="0 0 115.1585014409222 180" height="180" width="115.1585014409222"><g id="SvgjsG1018"><svg viewBox="0 0 115.1585014409222 180" height="180" width="115.1585014409222" id="SvgjsSvg1017"><g><svg viewBox="0 0 115.1585014409222 180" height="180" width="115.1585014409222"><g transform="matrix(1,0,0,1,0,0)"><svg width="115.1585014409222" viewBox="3.0999999046325684 -34.25 22.19999885559082 34.70000076293945" height="180" data-palette-color="url(#16c1dbbf-9edf-44e8-b2bb-b8e6bde4bbb4)"><path d="M13.55 0.45L13.55 0.45Q10.45 0.45 8-0.4 5.55-1.25 3.1-2.7L3.1-2.7Q3.4-4.6 3.5-6.55 3.6-8.5 3.6-10L3.6-10Q4.25-10.2 5.15-10.28 6.05-10.35 6.8-10.35L6.8-10.35Q7-7.7 7.73-5.9 8.45-4.1 10.03-3.15 11.6-2.2 14.15-2.2L14.15-2.2Q17.45-2.2 18.88-3.65 20.3-5.1 20.3-7.15L20.3-7.15Q20.3-9.2 19.1-10.55 17.9-11.9 16-12.88 14.1-13.85 12-14.8 9.9-15.75 8-17.03 6.1-18.3 4.9-20.2 3.7-22.1 3.7-25.05L3.7-25.05Q3.7-28 5-30.05 6.3-32.1 8.63-33.18 10.95-34.25 14.1-34.25L14.1-34.25Q15.85-34.25 17.5-33.95 19.15-33.65 20.53-33.15 21.9-32.65 22.75-32.05L22.75-32.05Q22.75-30.5 22.8-28.55 22.85-26.6 23.05-25.3L23.05-25.3Q22.45-25.05 21.53-24.9 20.6-24.75 19.8-24.75L19.8-24.75Q19.3-27.6 18.5-29.1 17.7-30.6 16.57-31.18 15.45-31.75 13.95-31.75L13.95-31.75Q11.45-31.75 10.03-30.55 8.6-29.35 8.6-27.15L8.6-27.15Q8.6-25.05 9.8-23.65 11-22.25 12.9-21.25 14.8-20.25 16.93-19.25 19.05-18.25 20.98-17 22.9-15.75 24.1-13.9 25.3-12.05 25.3-9.25L25.3-9.25Q25.3-6.65 24.05-4.42 22.8-2.2 20.23-0.88 17.65 0.45 13.55 0.45Z" opacity="1" transform="matrix(1,0,0,1,0,0)" fill="white" class="wordmark-text-0" id="SvgjsPath1016"></path></svg></g></svg></g></svg></g></svg></g><g></g></svg></g></svg></g></svg></g></svg></g><defs><mask></mask></defs></svg></g></mask><linearGradient x1="0" x2="1" y1="0.5" y2="0.5" id="16c1dbbf-9edf-44e8-b2bb-b8e6bde4bbb4"><stop stop-color="#f00b51" offset="0"></stop><stop stop-color="#730062" offset="1"></stop></linearGradient><rect width="320" height="360" fill="url(#16c1dbbf-9edf-44e8-b2bb-b8e6bde4bbb4)" mask="url(#ea7d3282-f33e-4bc0-a24a-1210c9895cf7)" data-fill-palette-color="primary"></rect></svg><rect width="320" height="360" fill="none" stroke="none" visibility="hidden"></rect></g></svg></g></svg>